<svg id="visual" viewBox="0 0 900 600" width="900" height="600" xmlns="http://www.w3.org/2000/svg" xmlns:xlink="http://www.w3.org/1999/xlink" version="1.1"><g stroke-width="1" stroke-linejoin="bevel"><path d="M475 319L371 294L393 403Z" fill="#fff1e7" stroke="#fff1e7"></path><path d="M371 294L323 321L393 403Z" fill="#ffc8a2" stroke="#ffc8a2"></path><path d="M323 321L333 427L393 403Z" fill="#ffe4d0" stroke="#ffe4d0"></path><path d="M417 507L538 430L393 403Z" fill="#ffd6b9" stroke="#ffd6b9"></path><path d="M393 403L538 430L475 319Z" fill="#fa8530" stroke="#fa8530"></path><path d="M532 170L438 182L475 319Z" fill="#ffd6b9" stroke="#ffd6b9"></path><path d="M475 319L438 182L371 294Z" fill="#fa8530" stroke="#fa8530"></path><path d="M284 198L229 321L323 321Z" fill="#ffc8a2" stroke="#ffc8a2"></path><path d="M333 427L417 507L393 403Z" fill="#fc9348" stroke="#fc9348"></path><path d="M284 198L323 321L371 294Z" fill="#ffd6b9" stroke="#ffd6b9"></path><path d="M323 321L229 321L333 427Z" fill="#fa8530" stroke="#fa8530"></path><path d="M438 182L284 198L371 294Z" fill="#fa8530" stroke="#fa8530"></path><path d="M417 507L509 516L538 430Z" fill="#ffe4d0" stroke="#ffe4d0"></path><path d="M195 461L303 509L333 427Z" fill="#fa8530" stroke="#fa8530"></path><path d="M333 427L303 509L417 507Z" fill="#f7770f" stroke="#f7770f"></path><path d="M417 507L460 600L509 516Z" fill="#fea15f" stroke="#fea15f"></path><path d="M630 265L532 170L475 319Z" fill="#fc9348" stroke="#fc9348"></path><path d="M438 182L314 124L284 198Z" fill="#ffc8a2" stroke="#ffc8a2"></path><path d="M509 516L564 508L538 430Z" fill="#fa8530" stroke="#fa8530"></path><path d="M538 430L630 265L475 319Z" fill="#ffd6b9" stroke="#ffd6b9"></path><path d="M564 508L618 437L538 430Z" fill="#fa8530" stroke="#fa8530"></path><path d="M618 437L630 265L538 430Z" fill="#f7770f" stroke="#f7770f"></path><path d="M88 328L185 375L229 321Z" fill="#fc9348" stroke="#fc9348"></path><path d="M229 321L185 375L333 427Z" fill="#ffd6b9" stroke="#ffd6b9"></path><path d="M402 72L314 124L438 182Z" fill="#ffbb8c" stroke="#ffbb8c"></path><path d="M284 198L178 190L229 321Z" fill="#ffbb8c" stroke="#ffbb8c"></path><path d="M185 375L195 461L333 427Z" fill="#ffffff" stroke="#ffffff"></path><path d="M630 265L637 224L532 170Z" fill="#fa8530" stroke="#fa8530"></path><path d="M710 209L637 224L630 265Z" fill="#fea15f" stroke="#fea15f"></path><path d="M293 600L379 600L303 509Z" fill="#fc9348" stroke="#fc9348"></path><path d="M303 509L379 600L417 507Z" fill="#ffae75" stroke="#ffae75"></path><path d="M509 516L602 600L564 508Z" fill="#ffae75" stroke="#ffae75"></path><path d="M379 600L460 600L417 507Z" fill="#ffffff" stroke="#ffffff"></path><path d="M532 67L438 182L532 170Z" fill="#fea15f" stroke="#fea15f"></path><path d="M532 67L402 72L438 182Z" fill="#fa8530" stroke="#fa8530"></path><path d="M193 100L284 198L314 124Z" fill="#ffffff" stroke="#ffffff"></path><path d="M193 100L178 190L284 198Z" fill="#ffae75" stroke="#ffae75"></path><path d="M176 600L293 600L303 509Z" fill="#ffd6b9" stroke="#ffd6b9"></path><path d="M666 520L691 429L618 437Z" fill="#ffae75" stroke="#ffae75"></path><path d="M618 437L691 429L630 265Z" fill="#fa8530" stroke="#fa8530"></path><path d="M666 520L618 437L564 508Z" fill="#ffae75" stroke="#ffae75"></path><path d="M637 103L532 67L532 170Z" fill="#ffffff" stroke="#ffffff"></path><path d="M602 600L666 520L564 508Z" fill="#fea15f" stroke="#fea15f"></path><path d="M691 429L728 294L630 265Z" fill="#ffd6b9" stroke="#ffd6b9"></path><path d="M637 224L637 103L532 170Z" fill="#ffc8a2" stroke="#ffc8a2"></path><path d="M460 600L602 600L509 516Z" fill="#ffae75" stroke="#ffae75"></path><path d="M728 294L710 209L630 265Z" fill="#ffe4d0" stroke="#ffe4d0"></path><path d="M710 209L637 103L637 224Z" fill="#fc9348" stroke="#fc9348"></path><path d="M178 190L88 328L229 321Z" fill="#ffbb8c" stroke="#ffbb8c"></path><path d="M80 437L110 501L195 461Z" fill="#fea15f" stroke="#fea15f"></path><path d="M195 461L176 600L303 509Z" fill="#fc9348" stroke="#fc9348"></path><path d="M289 0L193 100L314 124Z" fill="#ffc8a2" stroke="#ffc8a2"></path><path d="M178 190L64 167L88 328Z" fill="#f7770f" stroke="#f7770f"></path><path d="M471 0L438 0L402 72Z" fill="#ffe4d0" stroke="#ffe4d0"></path><path d="M402 72L289 0L314 124Z" fill="#ffbb8c" stroke="#ffbb8c"></path><path d="M471 0L402 72L532 67Z" fill="#fff1e7" stroke="#fff1e7"></path><path d="M80 437L195 461L185 375Z" fill="#fff1e7" stroke="#fff1e7"></path><path d="M636 0L471 0L532 67Z" fill="#fea15f" stroke="#fea15f"></path><path d="M88 328L80 437L185 375Z" fill="#ffe4d0" stroke="#ffe4d0"></path><path d="M110 501L176 600L195 461Z" fill="#ffc8a2" stroke="#ffc8a2"></path><path d="M710 209L665 87L637 103Z" fill="#ffd6b9" stroke="#ffd6b9"></path><path d="M637 103L636 0L532 67Z" fill="#ffc8a2" stroke="#ffc8a2"></path><path d="M691 429L774 371L728 294Z" fill="#fea15f" stroke="#fea15f"></path><path d="M728 294L803 196L710 209Z" fill="#ffae75" stroke="#ffae75"></path><path d="M710 209L783 139L665 87Z" fill="#f7770f" stroke="#f7770f"></path><path d="M798 485L774 371L691 429Z" fill="#ffe4d0" stroke="#ffe4d0"></path><path d="M438 0L289 0L402 72Z" fill="#ffbb8c" stroke="#ffbb8c"></path><path d="M76 129L64 167L178 190Z" fill="#f7770f" stroke="#f7770f"></path><path d="M88 328L0 410L80 437Z" fill="#f7770f" stroke="#f7770f"></path><path d="M76 129L178 190L193 100Z" fill="#ffbb8c" stroke="#ffbb8c"></path><path d="M289 0L215 0L193 100Z" fill="#fff1e7" stroke="#fff1e7"></path><path d="M70 0L76 129L193 100Z" fill="#fea15f" stroke="#fea15f"></path><path d="M774 371L812 289L728 294Z" fill="#fc9348" stroke="#fc9348"></path><path d="M110 501L103 600L176 600Z" fill="#fea15f" stroke="#fea15f"></path><path d="M0 512L103 600L110 501Z" fill="#fff1e7" stroke="#fff1e7"></path><path d="M660 0L636 0L665 87Z" fill="#fa8530" stroke="#fa8530"></path><path d="M665 87L636 0L637 103Z" fill="#fea15f" stroke="#fea15f"></path><path d="M602 600L730 600L666 520Z" fill="#ffe4d0" stroke="#ffe4d0"></path><path d="M666 520L798 485L691 429Z" fill="#fea15f" stroke="#fea15f"></path><path d="M900 415L900 285L812 289Z" fill="#fa8530" stroke="#fa8530"></path><path d="M730 600L798 485L666 520Z" fill="#ffbb8c" stroke="#ffbb8c"></path><path d="M812 289L803 196L728 294Z" fill="#ffffff" stroke="#ffffff"></path><path d="M0 272L0 410L88 328Z" fill="#ffc8a2" stroke="#ffc8a2"></path><path d="M80 437L0 512L110 501Z" fill="#fa8530" stroke="#fa8530"></path><path d="M0 222L0 272L64 167Z" fill="#fc9348" stroke="#fc9348"></path><path d="M64 167L0 272L88 328Z" fill="#ffffff" stroke="#ffffff"></path><path d="M803 196L783 139L710 209Z" fill="#ffbb8c" stroke="#ffbb8c"></path><path d="M817 0L660 0L665 87Z" fill="#ffc8a2" stroke="#ffc8a2"></path><path d="M730 600L760 600L798 485Z" fill="#ffd6b9" stroke="#ffd6b9"></path><path d="M0 66L0 222L64 167Z" fill="#ffae75" stroke="#ffae75"></path><path d="M0 410L0 512L80 437Z" fill="#ffe4d0" stroke="#ffe4d0"></path><path d="M215 0L70 0L193 100Z" fill="#ffd6b9" stroke="#ffd6b9"></path><path d="M76 129L0 66L64 167Z" fill="#fff1e7" stroke="#fff1e7"></path><path d="M0 512L0 600L103 600Z" fill="#fa8530" stroke="#fa8530"></path><path d="M900 415L812 289L774 371Z" fill="#fff1e7" stroke="#fff1e7"></path><path d="M812 289L900 285L803 196Z" fill="#fea15f" stroke="#fea15f"></path><path d="M803 196L900 174L783 139Z" fill="#ffbb8c" stroke="#ffbb8c"></path><path d="M900 415L774 371L798 485Z" fill="#ffc8a2" stroke="#ffc8a2"></path><path d="M900 527L900 415L798 485Z" fill="#fff1e7" stroke="#fff1e7"></path><path d="M70 0L0 66L76 129Z" fill="#ffe4d0" stroke="#ffe4d0"></path><path d="M900 285L900 174L803 196Z" fill="#fff1e7" stroke="#fff1e7"></path><path d="M783 139L817 0L665 87Z" fill="#fff1e7" stroke="#fff1e7"></path><path d="M760 600L900 527L798 485Z" fill="#ffc8a2" stroke="#ffc8a2"></path><path d="M900 91L817 0L783 139Z" fill="#fff1e7" stroke="#fff1e7"></path><path d="M70 0L0 0L0 66Z" fill="#ffc8a2" stroke="#ffc8a2"></path><path d="M900 174L900 91L783 139Z" fill="#ffe4d0" stroke="#ffe4d0"></path><path d="M760 600L900 600L900 527Z" fill="#ffe4d0" stroke="#ffe4d0"></path><path d="M900 91L900 0L817 0Z" fill="#fff1e7" stroke="#fff1e7"></path></g></svg>